<?xml version="1.0" standalone="no"?>
<!DOCTYPE svg PUBLIC "-//W3C//DTD SVG 20010904//EN"
 "http://www.w3.org/TR/2001/REC-SVG-20010904/DTD/svg10.dtd">
<svg version="1.0" xmlns="http://www.w3.org/2000/svg"
 width="600.000000pt" height="600.000000pt" viewBox="0 0 600.000000 600.000000"
 preserveAspectRatio="xMidYMid meet">
<metadata>
Created by potrace 1.14, written by Peter Selinger 2001-2017
</metadata>
<g transform="translate(0.000000,600.000000) scale(0.100000,-0.100000)"
fill="#000000" stroke="none">
<path d="M0 3540 l0 -2460 40 20 c53 27 67 52 76 130 13 122 38 152 163 190
57 17 73 28 140 98 68 69 84 80 137 95 34 10 96 17 143 17 67 0 101 6 177 32
92 31 97 32 152 18 31 -7 89 -15 127 -17 60 -3 76 0 115 21 102 56 151 74 260
95 153 29 234 54 360 111 58 26 115 50 127 54 28 9 44 36 77 131 15 44 31 89
36 100 5 11 19 43 32 70 46 103 34 324 -26 450 -38 79 -57 143 -80 259 -10 47
-24 88 -35 100 -40 43 -78 156 -91 271 -7 61 -18 138 -25 173 -6 34 -13 92
-14 128 -1 37 -7 78 -12 92 -16 42 -21 134 -8 164 7 16 28 37 48 48 20 10 37
26 38 37 1 10 6 40 11 66 5 26 10 109 11 185 1 75 9 178 18 227 8 50 16 95 16
102 0 7 6 14 14 17 7 3 13 14 13 24 0 48 126 281 202 373 21 26 38 51 38 55 1
15 57 72 77 78 10 3 38 24 61 46 28 27 50 40 69 40 22 0 25 2 13 10 -12 8 -11
10 8 10 12 0 22 4 22 9 0 5 26 18 58 29 31 11 91 32 132 46 41 15 104 31 140
36 117 17 245 30 296 30 50 0 172 -28 209 -47 11 -6 34 -16 50 -23 62 -25 100
-45 115 -60 8 -8 24 -21 35 -28 11 -7 34 -21 50 -32 32 -20 144 -140 235 -249
61 -73 147 -207 172 -266 66 -160 118 -424 118 -601 0 -97 2 -113 20 -132 12
-12 27 -22 34 -22 24 0 48 -38 48 -77 1 -55 -20 -261 -27 -273 -4 -6 -10 -65
-15 -132 -5 -66 -13 -124 -18 -127 -8 -6 -15 -35 -29 -121 -3 -19 -9 -36 -14
-38 -5 -2 -9 -12 -9 -22 0 -9 -7 -23 -15 -30 -8 -7 -15 -19 -15 -26 0 -8 -8
-22 -18 -32 -10 -10 -23 -47 -30 -82 -18 -90 -39 -345 -34 -402 l4 -48 -40 0
c-31 0 -41 -4 -45 -20 -6 -22 18 -29 26 -7 2 6 3 2 1 -9 -3 -15 2 -23 16 -27
15 -4 20 -13 20 -39 -1 -31 -29 -98 -30 -70 0 8 -8 12 -17 10 -14 -3 -17 -12
-15 -46 2 -25 -1 -42 -7 -42 -15 0 -14 -27 2 -33 10 -4 10 -7 0 -18 -15 -15
-18 -43 -4 -35 5 3 11 -9 15 -27 16 -85 33 -125 61 -148 39 -32 75 -49 103
-52 12 0 22 -4 22 -7 0 -3 17 -12 38 -19 20 -8 44 -19 52 -26 63 -51 260 -124
380 -141 58 -8 135 -26 173 -40 37 -14 91 -32 120 -39 28 -8 77 -20 107 -28
30 -8 98 -30 150 -49 52 -20 118 -41 147 -48 28 -6 87 -32 130 -56 43 -25 105
-60 138 -77 75 -40 121 -81 146 -129 10 -20 52 -81 93 -135 91 -121 108 -155
145 -284 17 -56 35 -107 40 -112 8 -8 11 774 11 2631 l0 2642 -3000 0 -3000 0
0 -2460z m4147 -492 c-3 -7 -5 -2 -5 12 0 14 2 19 5 13 2 -7 2 -19 0 -25z"/>
<path d="M3071 5251 c-8 -5 -20 -7 -28 -4 -7 3 -21 2 -30 -2 -24 -10 -62 -17
-93 -17 -14 0 -28 -5 -32 -11 -5 -8 -11 -7 -21 1 -11 10 -20 8 -40 -9 -15 -11
-31 -18 -36 -15 -5 3 -14 -1 -21 -9 -7 -8 -16 -13 -20 -10 -4 3 -10 -1 -13 -9
-3 -8 -16 -12 -31 -11 -14 2 -25 0 -24 -3 1 -4 -3 -16 -9 -27 -9 -17 -7 -25
18 -49 16 -16 29 -33 29 -38 0 -4 6 -8 14 -8 8 0 17 -7 20 -16 4 -12 13 -14
32 -10 17 5 23 3 19 -4 -3 -5 1 -10 10 -10 12 0 15 -5 11 -16 -5 -14 -4 -15 8
-4 13 10 26 6 73 -19 32 -18 59 -28 61 -23 1 5 17 6 35 3 26 -6 33 -12 35 -36
l4 -30 13 30 c7 17 14 24 14 17 1 -7 6 -10 11 -7 6 3 10 0 10 -8 0 -18 45 -28
59 -14 5 5 20 11 33 12 13 1 28 3 35 4 6 0 26 15 43 32 17 18 46 37 63 44 85
32 97 40 92 54 -3 8 0 18 7 23 10 7 9 8 -2 6 -16 -3 -20 2 -20 23 0 8 4 8 15
-1 8 -6 23 -9 36 -5 14 5 19 4 15 -4 -5 -7 -1 -9 8 -5 9 3 16 2 16 -4 0 -6 23
-24 50 -41 28 -17 50 -37 50 -45 0 -8 15 -22 34 -31 18 -9 38 -27 45 -41 7
-17 17 -24 27 -20 8 3 12 2 9 -4 -3 -6 -2 -10 2 -10 10 0 45 -57 41 -65 -2 -2
7 -12 20 -20 12 -9 20 -21 17 -26 -4 -5 -1 -9 5 -9 6 0 8 -5 5 -10 -3 -6 1
-13 9 -16 9 -3 16 -12 16 -18 0 -7 9 -31 20 -54 11 -22 20 -46 20 -52 0 -6 7
-18 16 -27 8 -9 13 -22 10 -29 -3 -8 1 -14 10 -14 8 0 13 -4 10 -8 -3 -5 4
-16 15 -25 15 -13 19 -14 19 -3 0 8 5 16 11 18 13 4 -5 47 -25 61 -7 5 -8 9
-1 15 11 8 15 74 5 82 -17 14 -51 71 -48 82 4 20 -28 73 -62 101 -16 14 -30
29 -30 34 0 11 -75 83 -87 83 -6 0 -21 15 -33 33 -13 18 -36 39 -52 46 -15 7
-26 16 -23 21 2 4 -17 15 -43 25 -26 10 -57 28 -68 42 -13 14 -45 30 -80 39
-32 8 -63 19 -68 23 -21 17 -150 52 -185 50 -20 -1 -43 1 -51 5 -8 3 -21 2
-29 -3z"/>
<path d="M2650 5133 c0 -5 -14 -10 -31 -10 -17 0 -35 -6 -39 -14 -5 -7 -12
-10 -16 -6 -4 4 -22 -4 -39 -18 -18 -13 -35 -21 -39 -18 -3 4 -6 0 -7 -8 0 -8
-19 -28 -42 -44 -23 -17 -46 -41 -52 -53 -5 -12 -17 -21 -25 -20 -15 4 -28
-12 -55 -69 -8 -18 -20 -33 -25 -33 -10 0 -32 -43 -34 -65 -1 -5 -14 -29 -30
-53 -23 -33 -29 -53 -27 -88 0 -25 -3 -43 -8 -40 -5 3 -11 -3 -14 -14 -4 -16
-2 -18 13 -10 9 5 20 6 24 3 3 -3 6 1 6 10 0 10 5 17 10 17 6 0 9 3 8 8 0 4 2
16 6 27 4 11 13 34 19 50 5 17 17 37 24 47 8 9 16 23 17 31 1 9 14 28 29 43
15 15 27 30 27 35 0 12 86 99 99 99 21 0 61 32 61 48 0 8 3 13 6 9 10 -9 32
16 27 30 -3 7 1 13 9 13 24 0 68 24 68 38 0 6 6 12 14 12 13 0 30 39 21 49 -3
2 -5 0 -5 -6z"/>
<path d="M2422 4165 c-69 -19 -94 -37 -172 -117 -64 -66 -66 -68 -116 -68 -33
0 -51 -4 -52 -12 0 -7 -4 -38 -8 -68 l-6 -56 43 -9 c43 -10 44 -11 64 -75 12
-36 28 -81 37 -100 24 -56 102 -129 171 -160 69 -31 205 -61 240 -54 12 3 35
8 52 11 42 7 95 36 129 69 16 16 60 93 98 170 71 146 81 158 138 155 50 -3 67
-21 99 -105 18 -44 45 -99 60 -121 16 -22 36 -61 45 -88 9 -26 27 -64 41 -85
13 -20 27 -51 31 -67 8 -41 -10 -84 -33 -80 -10 2 -21 4 -24 4 -4 1 -10 13
-14 29 -8 34 -43 72 -65 72 -28 0 -68 -38 -75 -70 -4 -17 -11 -30 -15 -30 -5
0 -7 -7 -3 -16 4 -11 16 -14 51 -10 30 3 52 0 66 -10 23 -16 72 -19 81 -4 3 6
19 10 36 10 16 0 29 5 29 10 0 7 6 7 18 1 13 -7 23 -6 30 1 9 9 12 8 12 -5 0
-9 5 -17 10 -17 6 0 10 -7 10 -16 0 -8 5 -12 10 -9 6 4 8 16 4 27 -3 11 -2 18
3 15 5 -3 8 12 7 34 -1 21 3 39 8 39 6 0 5 7 -2 15 -11 13 -10 14 3 9 10 -3
20 2 27 16 6 11 15 18 19 15 5 -3 11 2 15 10 3 8 18 15 33 15 45 0 136 30 178
59 55 37 107 110 134 185 27 77 52 106 91 106 34 0 43 21 38 91 l-3 44 -56 6
c-56 6 -59 8 -141 93 -74 75 -118 104 -118 78 0 -13 23 -32 40 -32 16 -1 73
-68 100 -118 9 -16 21 -27 27 -25 6 2 13 -6 16 -19 3 -13 9 -33 12 -45 5 -14
3 -23 -4 -23 -6 0 -15 15 -21 33 -10 31 -10 31 -5 2 22 -132 16 -178 -34 -257
-134 -212 -502 -189 -602 36 -25 57 -36 159 -21 196 9 21 11 22 11 5 1 -23 35
-78 43 -70 3 3 11 -1 18 -10 17 -21 44 -20 36 1 -5 13 -4 14 7 6 8 -7 17 -8
22 -4 4 4 2 -4 -5 -17 -11 -21 -10 -23 3 -18 11 4 14 2 11 -7 -8 -21 63 -27
72 -6 4 8 6 20 5 25 -1 6 5 2 13 -8 21 -27 119 -30 136 -4 8 13 19 18 35 14
14 -2 22 0 19 4 -3 5 -12 9 -21 9 -18 0 -12 10 9 14 7 2 26 9 42 16 25 13 30
12 43 -5 7 -11 17 -20 20 -20 4 0 17 -10 30 -22 16 -17 18 -23 8 -23 -8 0 -14
-3 -14 -7 4 -22 -2 -43 -12 -43 -5 0 -7 5 -3 12 4 7 3 8 -5 4 -8 -6 -9 -12 -2
-20 6 -7 8 -16 4 -19 -3 -4 -1 -7 6 -7 8 0 10 -8 7 -22 -3 -13 -3 -17 0 -10 3
7 17 17 31 23 13 5 22 13 18 18 -7 13 32 34 47 25 6 -4 8 -3 4 4 -3 6 -2 13 3
16 5 4 8 14 6 24 -2 9 -4 25 -4 35 -1 9 -6 17 -12 17 -7 0 -17 8 -24 17 -11
15 -12 14 -8 -12 5 -28 4 -29 -11 -14 -9 9 -18 25 -19 37 -1 12 -5 22 -10 22
-4 0 -8 8 -7 18 3 26 -11 63 -21 56 -5 -3 -6 2 -3 10 3 9 1 16 -5 16 -6 0 -11
13 -11 29 0 33 -22 56 -46 47 -12 -5 -14 -1 -8 17 3 12 3 19 -1 15 -5 -4 -14
0 -22 10 -12 16 -13 16 -7 -1 6 -17 5 -17 -30 -1 -20 10 -36 21 -36 25 0 16
-77 30 -104 19 -14 -5 -26 -6 -26 -2 0 4 -4 2 -8 -4 -4 -7 -15 -8 -27 -4 -18
7 -17 9 10 20 57 24 138 37 166 27 32 -13 72 -1 49 13 -24 15 -152 11 -210 -6
-67 -20 -150 -72 -143 -91 3 -7 9 -10 14 -7 15 9 10 -13 -6 -26 -12 -10 -15
-10 -15 4 0 9 -7 16 -15 16 -8 0 -15 5 -15 10 0 6 -11 10 -25 10 -29 0 -45
-28 -24 -41 12 -7 12 -9 -1 -9 -11 -1 -10 -4 4 -15 25 -19 28 -18 -131 -19
-119 -1 -132 1 -143 18 -10 16 -9 18 4 13 11 -4 13 -2 9 10 -4 10 -2 14 5 9 6
-3 14 -1 18 5 5 8 3 9 -6 4 -10 -6 -12 -4 -6 10 6 16 4 16 -11 4 -15 -12 -16
-12 -11 3 4 10 1 19 -10 23 -9 3 -18 1 -20 -5 -5 -15 -32 8 -32 27 0 9 -6 13
-15 9 -8 -3 -21 1 -29 9 -7 8 -16 12 -18 9 -3 -2 -40 9 -83 27 -94 37 -194 46
-273 24z m245 -44 c42 -22 42 -22 -57 -25 -25 -1 -49 -4 -55 -7 -23 -13 -46
-18 -40 -9 9 14 -9 12 -23 -2 -7 -7 -12 -9 -12 -4 0 11 -25 -16 -33 -36 -4
-12 -2 -18 7 -18 8 0 16 -4 18 -9 2 -5 24 -3 50 4 26 6 45 8 42 3 -3 -5 6 -7
20 -4 15 3 26 0 26 -6 0 -6 7 -5 17 3 11 10 14 10 9 2 -4 -8 -2 -13 4 -13 6 0
8 -5 5 -10 -4 -6 -11 -8 -16 -5 -5 4 -9 3 -9 -2 0 -4 -15 -8 -32 -9 -60 -1
-108 -8 -108 -15 0 -4 -7 -10 -16 -13 -12 -5 -15 -2 -10 10 5 13 0 12 -27 -5
-19 -11 -37 -18 -40 -14 -7 7 -8 1 -11 -57 -1 -22 -6 -34 -14 -33 -6 2 -11 0
-11 -5 3 -19 -2 -33 -10 -27 -5 3 -12 2 -15 -3 -3 -5 11 -14 30 -21 18 -7 34
-18 34 -26 0 -8 4 -16 9 -19 5 -4 7 7 5 23 -3 16 0 32 6 36 5 3 10 -1 10 -11
0 -13 3 -14 15 -4 8 7 15 19 15 27 0 12 3 13 13 4 8 -6 24 -12 36 -14 13 -2
26 -8 29 -13 10 -14 42 -14 42 0 0 7 -6 18 -12 25 -7 8 -1 6 15 -4 40 -26 35
-43 -15 -41 -26 1 -43 -4 -46 -12 -3 -9 3 -13 14 -12 42 5 53 0 47 -17 -6 -15
-4 -16 9 -5 11 9 18 10 23 2 4 -7 12 -5 22 5 8 9 17 14 19 13 7 -7 -8 -48 -16
-43 -4 3 -13 -2 -19 -9 -10 -12 -9 -13 7 -9 11 2 23 0 26 -6 5 -7 -2 -11 -18
-11 -14 0 -28 -4 -31 -10 -9 -15 -27 -12 -19 3 4 6 -1 4 -12 -5 -11 -9 -31
-15 -47 -14 -15 2 -30 -1 -33 -5 -3 -5 2 -9 10 -9 9 0 16 -5 16 -12 0 -9 3 -9
12 0 18 18 32 14 17 -5 -9 -11 -3 -10 19 6 17 12 32 18 32 12 0 -6 7 -8 15 -5
11 4 12 10 6 18 -7 8 -4 12 10 12 11 0 18 -5 15 -12 -3 -8 6 -6 25 4 16 9 29
20 29 25 0 4 5 7 11 7 7 0 20 9 30 21 10 11 23 18 28 14 7 -3 8 0 5 9 -6 16 5
21 35 17 7 -2 10 3 6 9 -4 6 7 25 24 42 17 18 31 28 32 22 0 -5 4 0 9 11 6 15
9 8 9 -27 2 -107 -73 -224 -177 -275 -49 -24 -69 -28 -143 -28 -47 0 -97 5
-110 11 -13 7 -39 18 -58 25 -47 17 -124 98 -155 161 -30 63 -43 143 -24 155
12 7 21 9 68 12 11 0 37 17 58 37 20 20 32 33 25 30 -6 -4 -14 2 -16 11 -3 13
-5 11 -6 -6 -1 -18 -5 -22 -21 -18 -12 3 -18 1 -14 -5 4 -6 1 -8 -7 -6 -8 3
-13 11 -12 17 2 7 -9 9 -32 6 -42 -5 -44 4 -14 60 39 74 96 119 194 154 47 17
187 6 232 -18z m68 -21 c3 -5 2 -10 -4 -10 -5 0 -13 5 -16 10 -3 6 -2 10 4 10
5 0 13 -4 16 -10z m101 -73 c4 -12 6 -22 4 -22 -2 0 2 -10 8 -21 15 -29 3 -39
-16 -13 -11 16 -17 17 -28 8 -10 -8 -14 -8 -14 0 0 6 5 11 10 11 16 0 12 15
-10 40 -28 32 -25 41 10 29 16 -6 32 -20 36 -32z m703 -34 c5 -10 13 -15 17
-11 4 5 13 3 21 -4 11 -8 12 -7 7 6 -5 12 -2 15 9 10 9 -3 13 -12 10 -20 -7
-20 10 -17 40 6 l26 21 11 -21 c8 -16 8 -20 -4 -20 -8 0 -16 3 -19 8 -2 4 -2
2 -1 -5 3 -14 -31 -27 -46 -18 -8 5 -63 11 -122 14 -11 1 -18 9 -18 22 0 11 4
18 8 15 4 -2 14 -1 22 5 21 13 28 11 39 -8z m-829 -2 c0 -12 -39 -21 -45 -11
-3 5 5 11 17 13 13 2 24 5 26 6 1 0 2 -3 2 -8z m-16 -112 c-3 -5 0 -9 6 -9 18
0 2 -17 -30 -34 -30 -14 -30 -14 -15 7 8 12 15 32 15 45 0 21 2 22 15 12 8 -7
12 -16 9 -21z m-170 -11 c23 -32 20 -39 -9 -26 -14 6 -25 19 -25 30 0 25 16
23 34 -4z m1068 8 c6 4 8 2 5 -3 -4 -6 2 -13 13 -16 30 -8 24 -24 -11 -31 -17
-3 -28 -10 -24 -15 3 -6 -4 -9 -15 -8 -11 1 -18 6 -15 12 3 5 8 18 11 28 4 9
10 17 15 17 5 0 7 6 5 13 -1 6 -1 9 1 4 3 -4 10 -4 15 -1z m-758 -32 c3 -8 2
-12 -4 -9 -6 3 -10 10 -10 16 0 14 7 11 14 -7z m693 -79 c0 -8 -4 -15 -9 -15
-4 0 -8 7 -8 15 0 8 4 15 8 15 5 0 9 -7 9 -15z m227 -1 c5 -14 4 -15 -9 -4
-17 14 -19 20 -6 20 5 0 12 -7 15 -16z m-385 -12 c7 -14 6 -19 -4 -19 -7 0
-13 9 -12 19 1 10 2 18 4 18 1 0 7 -8 12 -18z m-701 -77 c-3 -3 -9 2 -12 12
-6 14 -5 15 5 6 7 -7 10 -15 7 -18z m1092 -15 c12 -7 10 -9 -8 -7 -12 0 -22 5
-22 9 0 11 12 10 30 -2z"/>
<path d="M2356 3893 c-6 -14 -5 -15 5 -6 7 7 10 15 7 18 -3 3 -9 -2 -12 -12z"/>
<path d="M2290 3850 c-9 -6 -10 -10 -3 -10 6 0 15 5 18 10 8 12 4 12 -15 0z"/>
<path d="M2545 3690 c3 -5 8 -10 11 -10 2 0 4 5 4 10 0 6 -5 10 -11 10 -5 0
-7 -4 -4 -10z"/>
<path d="M2527 3669 c7 -7 15 -10 18 -7 3 3 -2 9 -12 12 -14 6 -15 5 -6 -5z"/>
<path d="M3710 3969 c0 -5 5 -7 10 -4 6 3 10 8 10 11 0 2 -4 4 -10 4 -5 0 -10
-5 -10 -11z"/>
<path d="M3904 3735 c-19 -46 -19 -61 1 -45 9 7 14 19 11 27 -3 8 -1 11 4 8 6
-3 10 5 10 19 0 35 -8 32 -26 -9z"/>
<path d="M3360 3699 c0 -6 9 -13 19 -16 12 -3 17 -11 14 -19 -3 -8 1 -14 10
-14 8 0 18 -7 21 -16 4 -10 14 -14 26 -11 15 4 20 0 20 -14 0 -10 6 -19 13
-19 7 0 22 -7 33 -15 17 -13 17 -16 4 -26 -13 -9 -12 -10 3 -5 9 3 17 2 17 -3
0 -13 49 -31 85 -31 24 0 35 5 35 15 0 9 -9 15 -25 15 -15 0 -25 6 -25 15 0 9
-6 12 -17 9 -17 -5 -17 -5 0 6 9 6 15 15 12 21 -4 5 -1 9 4 9 6 0 11 -8 11
-17 0 -12 3 -14 11 -6 15 15 5 30 -25 35 -17 3 -27 0 -31 -11 -4 -10 -9 -12
-13 -5 -11 18 -53 36 -68 30 -8 -3 -14 1 -14 8 0 8 -7 17 -16 20 -22 8 -26 8
-19 -4 3 -6 -1 -7 -9 -4 -9 3 -13 11 -9 17 3 6 1 7 -5 3 -7 -4 -12 -1 -12 8 0
8 6 17 13 20 6 3 0 3 -15 0 -17 -4 -28 -2 -28 5 0 6 -4 11 -10 11 -5 0 -10 -5
-10 -11z m167 -92 c11 4 14 2 9 -5 -4 -7 -2 -12 3 -12 6 0 11 -4 11 -10 0 -6
-10 -5 -25 2 -14 6 -25 18 -24 27 0 10 3 11 5 4 3 -7 12 -9 21 -6z"/>
<path d="M3471 3694 c0 -11 3 -14 6 -6 3 7 2 16 -1 19 -3 4 -6 -2 -5 -13z"/>
<path d="M3672 3611 c-11 -7 -11 -9 2 -14 10 -4 16 -1 16 8 0 17 -1 17 -18 6z"/>
<path d="M2032 3555 c-1 -11 -9 -31 -18 -43 -8 -12 -12 -22 -8 -22 5 0 3 -5
-4 -12 -15 -15 -16 -124 -1 -167 11 -31 36 -42 44 -18 2 6 1 73 -4 147 -4 74
-9 126 -9 115z"/>
<path d="M4062 3516 c0 -25 3 -44 7 -42 7 5 -2 -100 -14 -176 -4 -23 -3 -38 3
-38 21 0 42 13 42 25 0 8 5 26 11 42 19 47 17 121 -3 140 -10 8 -15 19 -13 24
3 4 -3 22 -14 40 l-19 32 0 -47z"/>
<path d="M2760 3410 c0 -7 -7 -10 -15 -6 -17 6 -20 -9 -4 -20 6 -3 15 0 20 7
6 10 9 6 10 -13 1 -16 3 -32 4 -38 1 -5 3 -14 4 -19 3 -26 121 -65 121 -40 0
14 45 56 55 52 6 -2 12 9 13 24 2 27 -22 63 -43 63 -19 0 -52 -43 -59 -76 -6
-27 -11 -31 -29 -26 -33 8 -47 22 -47 49 0 13 -7 31 -15 39 -10 10 -15 11 -15
4z"/>
<path d="M2970 3275 c-11 -13 -10 -14 4 -9 9 3 16 10 16 15 0 13 -6 11 -20 -6z"/>
<path d="M3000 3266 c0 -8 -6 -16 -12 -19 -10 -4 -10 -7 0 -18 10 -11 12 -11
12 1 0 9 6 6 16 -8 15 -21 15 -22 35 -3 16 15 18 23 11 38 -12 22 -62 29 -62
9z"/>
<path d="M3028 3143 c7 -3 16 -2 19 1 4 3 -2 6 -13 5 -11 0 -14 -3 -6 -6z"/>
<path d="M2680 3081 c0 -5 5 -13 10 -16 6 -3 10 -2 10 4 0 5 -4 13 -10 16 -5
3 -10 2 -10 -4z"/>
<path d="M2610 3030 c0 -5 5 -10 10 -10 6 0 10 5 10 10 0 6 -4 10 -10 10 -5 0
-10 -4 -10 -10z"/>
<path d="M2960 3029 c0 -6 -7 -8 -16 -5 -11 4 -15 2 -11 -8 5 -12 1 -13 -19
-6 -19 8 -29 6 -41 -5 -8 -8 -18 -13 -23 -10 -5 3 -10 2 -12 -2 -1 -5 -18 -19
-37 -32 -30 -21 -38 -23 -64 -13 -17 6 -34 9 -39 6 -5 -4 -45 -7 -88 -8 -56
-2 -77 1 -74 9 6 15 -46 75 -63 75 -15 0 -17 -26 -3 -35 6 -4 7 -12 3 -18 -11
-18 -12 -37 -2 -37 5 0 7 -11 3 -25 -3 -14 -1 -31 5 -38 22 -27 8 -77 -31
-114 -9 -9 -14 -21 -11 -26 4 -6 -5 -8 -21 -5 -22 4 -26 2 -21 -13 4 -11 0
-19 -12 -22 -10 -2 0 -7 25 -12 43 -8 43 -8 22 -27 -24 -22 -26 -30 -5 -22 9
4 15 0 15 -10 0 -9 -7 -16 -15 -16 -9 0 -15 -9 -15 -24 0 -36 -10 -56 -28 -56
-21 0 -4 -16 23 -23 16 -3 13 -6 -12 -12 -18 -4 -33 -11 -33 -16 0 -5 6 -6 13
-3 8 3 18 -6 25 -21 7 -15 8 -24 4 -21 -5 3 -14 -5 -20 -18 -8 -18 -6 -33 11
-69 12 -26 26 -47 30 -47 13 0 37 -27 37 -43 0 -7 11 -24 25 -37 14 -13 25
-29 25 -36 0 -7 13 -21 30 -30 21 -13 26 -21 19 -30 -7 -9 -2 -14 20 -19 35
-7 56 -29 45 -47 -5 -10 -4 -10 6 -1 10 9 17 7 31 -12 23 -28 24 -36 4 -29 -8
4 -15 2 -15 -3 0 -18 12 -22 38 -12 21 8 23 7 13 -4 -9 -12 -7 -16 8 -20 11
-2 23 -1 28 3 4 5 19 0 32 -11 18 -15 21 -23 13 -31 -9 -9 -12 -9 -12 1 0 7
-4 10 -9 7 -5 -4 -12 0 -14 6 -4 10 -6 10 -6 0 -1 -7 6 -15 14 -18 8 -4 13 -9
11 -13 -2 -3 7 -7 21 -8 19 -1 22 1 12 8 -12 8 -12 10 1 19 8 5 21 8 28 5 8
-3 18 -5 23 -5 5 0 9 -5 9 -11 0 -6 -6 -9 -14 -6 -8 3 -17 3 -20 0 -9 -9 21
-33 41 -33 15 0 16 2 3 10 -8 5 -10 10 -5 10 6 -1 19 -7 29 -15 16 -12 17 -15
4 -15 -11 0 -14 -7 -10 -25 2 -15 0 -25 -8 -25 -7 0 -9 8 -5 19 8 28 -26 33
-43 6 -12 -18 -12 -17 -7 15 2 19 2 30 -1 23 -3 -8 -16 -10 -36 -6 -22 4 -29
3 -24 -5 4 -7 2 -12 -3 -12 -6 0 -11 -4 -11 -10 0 -5 7 -10 15 -10 8 0 23 -4
33 -9 18 -9 98 -35 117 -37 5 0 17 -2 25 -3 8 -1 22 -6 30 -11 13 -9 13 -11 0
-20 -11 -8 -8 -9 13 -4 19 4 27 2 27 -7 0 -9 4 -8 13 3 6 9 23 19 37 21 24 4
24 4 -2 6 -16 0 -28 5 -28 10 0 5 16 8 35 6 19 -2 35 1 35 6 0 5 8 9 18 9 10
0 22 4 28 9 5 5 27 14 49 21 42 13 75 36 75 53 0 5 -8 3 -17 -4 -15 -12 -16
-12 -10 5 5 12 3 23 -5 28 -9 5 -7 8 7 9 11 1 24 1 28 0 5 -1 6 3 2 9 -4 6 21
37 54 69 63 60 73 74 44 65 -15 -5 -16 -4 -3 5 21 15 43 14 34 -1 -4 -7 3 -3
15 10 12 12 26 22 31 22 6 0 10 7 10 15 0 8 -4 15 -10 15 -5 0 -7 7 -4 15 4 9
-4 25 -19 39 -14 13 -23 26 -21 29 3 3 15 -4 27 -16 21 -21 22 -21 25 -3 2 11
14 28 26 37 11 10 17 18 11 19 -5 0 0 7 12 15 13 9 20 22 17 30 -4 8 1 18 10
21 20 8 21 54 1 54 -9 0 -12 -6 -9 -15 4 -9 0 -15 -10 -15 -9 0 -16 -4 -16
-10 0 -5 5 -10 11 -10 8 0 8 -4 0 -14 -9 -11 -9 -15 1 -19 8 -4 7 -6 -4 -6
-16 -1 -23 10 -19 32 0 4 -8 7 -19 7 -12 0 -20 6 -19 13 3 26 -2 37 -17 37 -9
0 -12 5 -8 13 5 9 4 9 -5 1 -17 -16 -48 -6 -54 17 -3 10 -11 19 -17 19 -7 0
-10 -7 -6 -17 5 -14 2 -13 -11 3 -10 12 -28 25 -40 29 -13 3 -22 9 -22 13 1 4
1 16 0 27 -1 15 -3 17 -10 6 -6 -10 -13 -11 -29 -2 -14 7 -23 8 -27 1 -3 -5
-1 -10 5 -10 6 0 8 -4 5 -10 -3 -5 -1 -10 4 -10 6 0 11 -5 11 -11 0 -8 -4 -8
-15 1 -18 15 -76 20 -67 6 10 -15 10 -56 0 -56 -4 0 -8 -10 -8 -21 0 -17 -3
-19 -14 -10 -11 9 -15 9 -18 0 -3 -8 -29 -13 -76 -13 -49 -1 -73 -5 -77 -14
-5 -14 -25 -7 -25 9 0 6 5 7 10 4 13 -8 13 5 0 25 -8 13 -10 13 -10 -1 0 -9
-6 -19 -14 -22 -8 -3 -13 1 -13 11 0 37 -3 44 -18 38 -13 -4 -14 -2 -5 14 9
17 8 20 -9 20 -14 0 -19 6 -18 20 1 12 7 18 14 16 7 -3 13 -3 13 -1 0 7 -64
39 -74 37 -14 -4 -47 9 -41 17 2 5 -7 13 -20 19 -17 8 -25 8 -25 1 0 -6 -5 -7
-10 -4 -17 10 0 26 21 20 10 -4 19 -2 19 3 0 5 -16 9 -36 9 -27 0 -38 -5 -42
-19 -2 -10 -8 -18 -13 -18 -5 0 -6 7 -3 15 4 8 3 22 0 31 -5 14 -9 14 -23 3
-15 -12 -16 -11 -11 9 5 16 1 25 -13 33 -16 8 -17 14 -8 30 8 15 7 24 -2 35
-10 12 -9 13 5 8 12 -5 15 -2 10 10 -4 10 -13 14 -24 11 -18 -6 -18 -6 -11 66
1 4 19 9 40 11 34 3 38 1 28 -12 -6 -8 1 -4 15 9 15 13 25 28 21 34 -4 6 -1 7
6 3 8 -5 14 -1 18 12 5 19 53 37 63 24 4 -6 85 -9 118 -4 6 1 12 8 12 16 0 21
18 30 34 17 7 -6 15 -8 18 -6 3 3 16 1 30 -4 19 -7 29 -6 42 7 16 16 17 16 10
0 -7 -21 21 -26 29 -5 4 9 6 9 6 0 1 -9 8 -10 29 -2 54 21 103 21 147 0 24
-11 64 -25 89 -32 42 -10 51 -18 47 -42 0 -4 2 -6 6 -5 27 5 107 -47 97 -64
-3 -5 1 -19 10 -32 8 -13 17 -42 19 -65 4 -41 27 -83 27 -51 0 13 2 13 10 0 6
-9 5 -17 -3 -22 -8 -5 -6 -9 7 -14 11 -4 21 -2 26 6 6 9 10 7 15 -9 5 -16 0
-27 -16 -40 -17 -14 -19 -20 -9 -26 9 -6 11 -4 5 5 -6 10 -1 12 23 7 20 -4 32
-2 32 4 0 6 5 7 11 3 6 -4 10 1 8 12 -1 11 1 41 6 67 6 41 5 50 -11 63 -17 13
-18 14 -1 8 15 -6 17 -2 12 22 -3 16 -2 23 1 17 3 -7 10 -13 16 -13 6 0 4 8
-5 18 -10 10 -14 22 -11 25 4 4 -1 9 -10 13 -9 3 -13 10 -10 15 8 14 -6 50
-19 48 -25 -3 -38 1 -32 11 4 6 12 7 18 3 8 -4 8 -2 -1 9 -10 13 -10 17 3 22
9 3 15 0 15 -9 0 -7 4 -16 9 -19 4 -3 6 9 4 27 -5 32 -10 93 -12 135 -1 12 -6
22 -12 22 -6 0 -9 -6 -6 -12 2 -7 -3 -19 -12 -26 -14 -11 -14 -11 2 -6 10 4
17 1 17 -7 0 -7 -3 -10 -6 -6 -4 3 -20 -1 -36 -9 -23 -12 -28 -19 -22 -37 5
-18 2 -16 -17 8 -31 39 -42 46 -51 32 -5 -9 -10 -9 -19 0 -6 6 -17 9 -24 7
-17 -7 -29 27 -13 37 7 4 10 10 7 13 -3 3 -19 -8 -35 -25 -22 -23 -26 -32 -15
-38 11 -7 10 -11 -5 -19 -14 -7 -31 -5 -64 11 -25 11 -47 24 -50 27 -3 4 -27
17 -54 30 -53 25 -142 32 -155 12 -5 -8 -17 -9 -37 -3 -16 4 -35 6 -42 4 -7
-3 -10 1 -6 11 3 9 3 16 0 16 -3 0 -6 -5 -6 -11z m445 -59 c-3 -5 -11 -10 -16
-10 -6 0 -7 5 -4 10 3 6 11 10 16 10 6 0 7 -4 4 -10z m75 -36 c0 -8 -19 -13
-24 -6 -3 5 1 9 9 9 8 0 15 -2 15 -3z m-966 -104 c-5 -5 -10 7 -10 28 -2 37
-2 37 8 9 6 -16 6 -33 2 -37z m1101 -30 c-3 -5 -1 -10 5 -10 6 0 8 -5 5 -10
-4 -6 -11 -8 -16 -5 -5 4 -9 0 -9 -7 0 -9 -3 -9 -10 2 -7 11 -5 19 7 28 20 15
26 15 18 2z m-1034 -123 c-10 -9 -11 -8 -5 6 3 10 9 15 12 12 3 -3 0 -11 -7
-18z m34 -107 c3 -6 -1 -7 -9 -4 -18 7 -21 14 -7 14 6 0 13 -4 16 -10z m48
-57 c-7 -2 -19 -2 -25 0 -7 3 -2 5 12 5 14 0 19 -2 13 -5z m167 -36 c0 -4 -6
-2 -14 5 -8 7 -12 17 -9 22 5 8 23 -12 23 -27z m-277 -2 c-3 -9 -8 -14 -10
-11 -3 3 -2 9 2 15 9 16 15 13 8 -4z m59 -7 c-7 -7 -12 -8 -12 -2 0 14 12 26
19 19 2 -3 -1 -11 -7 -17z m-162 -21 c0 -4 -9 -3 -20 3 -11 6 -20 15 -20 20 0
6 9 5 20 -2 11 -7 20 -16 20 -21z m355 3 c18 -20 18 -21 0 -14 -13 5 -16 4
-11 -4 4 -7 3 -12 -2 -12 -6 0 -9 11 -8 25 0 14 1 25 2 25 0 0 9 -9 19 -20z
m-141 -6 c9 -24 2 -26 -12 -4 -7 11 -8 20 -3 20 5 0 12 -7 15 -16z m206 -8 c0
-3 -4 -8 -10 -11 -5 -3 -10 -1 -10 4 0 6 5 11 10 11 6 0 10 -2 10 -4z m-140
-60 c0 -8 3 -21 6 -29 3 -8 -1 -17 -8 -19 -9 -4 -14 5 -15 28 -2 19 2 34 7 34
6 0 10 -6 10 -14z m610 4 c0 -5 -5 -10 -11 -10 -5 0 -7 5 -4 10 3 6 8 10 11
10 2 0 4 -4 4 -10z m-640 -26 c0 -8 -4 -12 -10 -9 -5 3 -10 10 -10 16 0 5 5 9
10 9 6 0 10 -7 10 -16z m736 -17 c4 -4 -2 -7 -14 -7 -12 0 -22 4 -22 9 0 10
26 9 36 -2z m34 -17 c0 -5 -2 -10 -4 -10 -3 0 -8 5 -11 10 -3 6 -1 10 4 10 6
0 11 -4 11 -10z m0 -30 c0 -5 -2 -10 -4 -10 -3 0 -8 5 -11 10 -3 6 -1 10 4 10
6 0 11 -4 11 -10z m-964 -46 c8 3 14 1 14 -4 0 -15 -26 -12 -39 3 -6 8 -7 17
-3 21 4 4 9 0 10 -9 2 -9 10 -14 18 -11z m71 -80 c-3 -3 -12 -4 -19 -1 -8 3
-5 6 6 6 11 1 17 -2 13 -5z m328 -244 c3 -6 -1 -7 -9 -4 -18 7 -21 14 -7 14 6
0 13 -4 16 -10z m55 -14 c0 -11 -19 -15 -25 -6 -3 5 1 10 9 10 9 0 16 -2 16
-4z m270 -27 c0 -5 -4 -9 -8 -9 -5 0 -9 7 -9 15 0 8 4 12 9 9 4 -3 8 -9 8 -15z
m-375 -29 c3 -5 1 -10 -4 -10 -6 0 -11 5 -11 10 0 6 2 10 4 10 3 0 8 -4 11
-10z"/>
<path d="M2623 3001 c-9 -11 -21 -17 -26 -14 -5 3 -4 -4 3 -16 13 -26 25 -21
38 19 13 35 8 38 -15 11z"/>
<path d="M2661 2974 c0 -11 3 -14 6 -6 3 7 2 16 -1 19 -3 4 -6 -2 -5 -13z"/>
<path d="M3517 2960 c5 -20 15 -25 26 -14 9 9 -4 34 -18 34 -8 0 -11 -8 -8
-20z"/>
<path d="M3075 2788 c-14 -32 -45 -35 -65 -8 -11 15 -22 20 -30 15 -10 -6 -8
-10 8 -16 12 -5 22 -13 22 -19 0 -6 -5 -8 -10 -5 -6 4 -17 1 -25 -5 -19 -15
-20 -45 -2 -33 6 4 18 8 26 10 8 1 18 8 23 15 7 9 9 7 5 -7 -3 -16 1 -21 18
-21 15 0 21 5 18 13 -3 7 0 13 6 13 6 0 8 7 4 17 -5 12 -2 15 10 10 11 -4 14
-2 10 9 -3 7 0 14 7 14 6 0 8 5 5 10 -10 16 -19 12 -30 -12z"/>
<path d="M3030 2652 c6 -13 14 -21 18 -18 3 4 -2 14 -12 24 -18 16 -18 16 -6
-6z"/>
<path d="M2341 2634 c0 -11 3 -14 6 -6 3 7 2 16 -1 19 -3 4 -6 -2 -5 -13z"/>
<path d="M3098 2643 c7 -3 16 -2 19 1 4 3 -2 6 -13 5 -11 0 -14 -3 -6 -6z"/>
<path d="M3977 2629 c4 -13 9 -17 15 -11 11 11 3 32 -12 32 -4 0 -6 -9 -3 -21z"/>
<path d="M2690 2616 c0 -9 30 -14 35 -6 4 6 -3 10 -14 10 -12 0 -21 -2 -21 -4z"/>
<path d="M3991 2574 c0 -11 3 -14 6 -6 3 7 2 16 -1 19 -3 4 -6 -2 -5 -13z"/>
<path d="M2802 2550 c-12 -19 -10 -20 19 -15 22 4 28 2 23 -6 -5 -8 -3 -9 5
-4 9 5 7 12 -8 26 -25 23 -23 23 -39 -1z"/>
<path d="M3527 2541 c-3 -12 1 -22 9 -25 10 -4 14 2 14 19 0 30 -16 33 -23 6z"/>
<path d="M3565 2550 c-3 -5 -2 -10 4 -10 5 0 13 5 16 10 3 6 2 10 -4 10 -5 0
-13 -4 -16 -10z"/>
<path d="M3957 2533 c-7 -40 3 -49 19 -18 14 26 11 45 -5 45 -5 0 -11 -12 -14
-27z"/>
<path d="M3418 2533 c7 -3 16 -2 19 1 4 3 -2 6 -13 5 -11 0 -14 -3 -6 -6z"/>
<path d="M3436 2503 c-11 -11 -6 -23 9 -23 8 0 15 4 15 9 0 13 -16 22 -24 14z"/>
<path d="M3494 2493 c3 -6 2 -14 -4 -18 -5 -3 -10 -12 -10 -18 0 -8 3 -7 9 2
5 8 16 11 26 8 9 -4 14 -3 10 2 -3 5 -2 11 2 14 5 2 3 3 -3 1 -6 -1 -17 3 -24
9 -10 9 -11 9 -6 0z"/>
<path d="M3420 2451 c0 -26 16 -35 24 -15 10 25 7 34 -9 34 -8 0 -15 -9 -15
-19z"/>
<path d="M3572 2451 c-9 -13 -13 -13 -20 -3 -7 10 -11 10 -22 -3 -8 -10 -9
-15 -1 -15 6 0 11 -8 11 -17 0 -14 2 -15 9 -5 4 8 11 13 15 13 32 -4 46 1 46
18 0 25 -24 33 -38 12z"/>
<path d="M2901 2444 c0 -11 3 -14 6 -6 3 7 2 16 -1 19 -3 4 -6 -2 -5 -13z"/>
<path d="M2365 2440 c3 -5 8 -10 11 -10 2 0 4 5 4 10 0 6 -5 10 -11 10 -5 0
-7 -4 -4 -10z"/>
<path d="M3570 2395 c0 -5 5 -17 10 -25 5 -8 10 -10 10 -5 0 6 -5 17 -10 25
-5 8 -10 11 -10 5z"/>
<path d="M3870 2343 c0 -23 25 -49 34 -35 3 5 -3 20 -14 32 -19 22 -20 22 -20
3z"/>
<path d="M3604 2292 c-6 -4 -17 -18 -24 -32 -12 -23 -12 -24 4 -11 15 13 41
51 34 51 -2 0 -8 -4 -14 -8z"/>
<path d="M2381 2264 c0 -11 3 -14 6 -6 3 7 2 16 -1 19 -3 4 -6 -2 -5 -13z"/>
<path d="M3884 2248 c4 -13 9 -30 11 -38 2 -8 4 -17 5 -20 1 -3 6 8 11 24 5
20 4 34 -3 43 -17 21 -31 15 -24 -9z"/>
<path d="M2186 2167 c-13 -29 -36 -83 -50 -121 -14 -37 -34 -78 -44 -91 -19
-23 -45 -87 -56 -135 -3 -14 -17 -30 -32 -37 -24 -11 -26 -10 -21 7 3 13 0 20
-9 20 -18 0 -18 8 1 26 8 9 15 20 15 25 0 20 -20 7 -56 -36 -20 -25 -39 -43
-42 -40 -3 3 7 19 23 35 16 16 26 33 22 36 -4 4 -37 -7 -74 -23 -38 -17 -117
-42 -178 -57 -192 -47 -287 -78 -385 -126 -165 -82 -156 -79 -203 -63 -23 8
-46 20 -52 27 -21 26 -65 27 -168 2 -56 -13 -127 -24 -157 -25 -123 -4 -184
-28 -276 -110 -38 -35 -101 -78 -141 -97 -82 -40 -118 -77 -133 -137 -23 -92
-41 -124 -105 -187 l-65 -64 0 -498 0 -498 1268 2 1267 3 7 70 c10 100 14 135
22 180 12 70 10 328 -3 360 -7 17 -12 31 -11 33 3 7 -14 78 -20 87 -5 6 -11
27 -15 48 -4 21 -14 41 -21 44 -8 3 -14 18 -14 33 0 15 -7 33 -15 40 -8 7 -15
21 -15 32 0 11 -5 16 -10 13 -7 -4 -9 5 -6 27 3 18 3 27 0 21 -8 -18 -24 -16
-24 2 0 8 5 15 10 15 6 0 10 12 10 26 0 14 4 22 10 19 5 -3 38 -8 72 -10 35
-2 54 0 43 3 -40 14 -130 65 -138 78 -4 8 -14 14 -22 14 -8 0 -19 9 -25 19
-14 26 -13 61 2 61 6 0 3 6 -8 14 -17 13 -18 18 -7 47 11 27 9 38 -7 75 -11
24 -20 46 -20 49 0 3 34 -17 75 -45 68 -46 115 -70 69 -35 -12 9 -14 14 -6 15
10 0 12 13 8 56 -5 40 -3 53 5 49 8 -6 8 -2 0 12 -6 11 -7 24 -3 28 4 5 2 5
-5 2 -6 -4 -15 5 -22 23 -8 24 -7 30 5 30 21 0 17 28 -6 40 -11 6 -18 15 -15
21 4 5 1 9 -5 9 -7 0 -9 8 -5 22 6 17 4 20 -9 15 -9 -4 -16 -1 -17 6 0 7 -2
22 -3 35 -2 13 1 25 6 28 4 3 8 0 8 -5 0 -6 5 -11 10 -11 16 0 7 34 -10 41
-20 8 -41 0 -33 -14 3 -5 1 -7 -4 -4 -12 7 -5 54 8 63 5 3 9 11 9 17 0 8 -3 8
-9 -1 -6 -10 -13 -8 -32 8 -21 18 -21 20 -3 11 24 -11 44 2 43 29 0 10 -3 9
-9 -5 l-9 -20 -1 20 c-2 11 -2 26 -1 33 1 6 -5 12 -14 12 -8 0 -15 6 -15 13 0
15 -45 57 -60 57 -14 0 -12 34 3 49 10 10 8 12 -7 9 -11 -2 -20 3 -21 12 -2 8
-8 35 -14 60 -6 25 -11 62 -11 82 0 56 -16 54 -44 -5z"/>
<path d="M3800 2208 c-2 -63 -21 -202 -34 -240 -18 -51 -95 -220 -105 -228 -3
-3 -6 -16 -6 -30 0 -14 -6 -31 -12 -38 -7 -7 -13 -22 -13 -33 0 -11 -4 -18 -9
-14 -6 3 -6 -7 -1 -27 6 -20 6 -36 -1 -44 -6 -7 -9 -21 -7 -31 1 -10 -1 -24
-5 -31 -5 -7 -2 -19 7 -28 18 -17 21 -28 6 -19 -5 3 -10 1 -10 -4 0 -6 7 -11
15 -11 9 0 15 -6 14 -12 -1 -7 2 -27 6 -45 7 -32 7 -32 37 -17 36 19 45 14 18
-11 -22 -20 -27 -65 -8 -65 7 0 3 -10 -8 -22 -29 -34 -44 -65 -44 -90 0 -13
-11 -31 -24 -40 -34 -25 -90 -55 -112 -61 -17 -4 -16 -5 3 -6 12 0 34 4 48 9
33 13 45 6 38 -20 -3 -12 -8 -18 -11 -16 -3 3 -16 -16 -30 -42 -13 -26 -30
-54 -37 -62 -7 -8 -21 -31 -30 -50 -29 -57 -98 -160 -107 -160 -4 0 -7 -3 -6
-8 0 -4 -6 -24 -15 -44 -19 -42 -23 -113 -6 -103 5 4 14 17 19 29 11 30 44 31
36 2 -3 -12 -6 -27 -6 -33 0 -8 -14 -13 -32 -14 -27 0 -29 -2 -13 -8 11 -5 23
-7 27 -5 3 2 -1 -24 -9 -58 -51 -207 -61 -286 -55 -430 l2 -48 1340 0 1340 0
0 314 c0 210 -4 317 -11 321 -15 10 -55 105 -89 213 -16 54 -45 123 -64 155
-49 80 -125 168 -145 165 -11 -2 -17 5 -19 22 -8 70 -54 113 -219 205 -153 85
-575 225 -681 225 -20 0 -43 6 -51 13 -18 15 -157 40 -172 31 -14 -8 -50 6
-43 18 4 6 -1 8 -14 4 -11 -4 -26 -1 -33 7 -8 7 -36 21 -64 31 -27 9 -96 40
-151 67 -56 27 -104 49 -107 49 -6 0 14 -34 71 -120 45 -70 31 -62 -24 12 -51
70 -78 92 -99 84 -17 -6 -21 -36 -5 -36 23 0 9 -30 -15 -31 -14 -1 -30 -2 -37
-3 -16 -1 -41 47 -62 119 -9 33 -26 78 -36 100 -11 22 -42 88 -69 148 -47 102
-61 123 -61 95z"/>
<path d="M2765 1800 c-3 -6 1 -7 9 -4 18 7 21 14 7 14 -6 0 -13 -4 -16 -10z"/>
<path d="M2885 1770 c3 -5 11 -10 16 -10 6 0 7 5 4 10 -3 6 -11 10 -16 10 -6
0 -7 -4 -4 -10z"/>
<path d="M2670 1758 c0 -21 41 -46 81 -49 l45 -4 -5 30 c-3 17 -6 23 -9 13 -2
-9 -17 -20 -33 -23 -24 -5 -36 -2 -55 16 -13 12 -24 20 -24 17z"/>
<path d="M2925 1743 c-18 -12 -17 -13 8 -13 19 0 30 -7 37 -22 7 -18 9 -19 9
-5 1 9 -7 25 -17 35 -16 16 -22 17 -37 5z"/>
<path d="M3030 1711 c0 -14 28 -33 42 -28 8 3 6 6 -6 6 -12 1 -16 6 -12 16 3
9 0 15 -9 15 -8 0 -15 -4 -15 -9z"/>
<path d="M2411 1674 c0 -11 3 -14 6 -6 3 7 2 16 -1 19 -3 4 -6 -2 -5 -13z"/>
</g>
</svg>
